HIERARCHY
ROOT root
{
 OFFSET 0.017768 1.783507 -1.776229
 CHANNELS 6 Xposition Yposition Zposition Xrotation Yrotation Zrotation
 JOINT lowerbody
 {
  OFFSET 0.000000 -1.631465 -0.004494
  CHANNELS 3 Xrotation Yrotation Zrotation
  JOINT upperbody
  {
   OFFSET 0.000000 0.000000 1.753525
   CHANNELS 3 Xrotation Yrotation Zrotation
   JOINT shoulder.L
   {
    OFFSET 0.000000 0.000000 3.259670
    CHANNELS 3 Xrotation Yrotation Zrotation
    JOINT upperarm.L
    {
     OFFSET 3.526544 0.000000 0.000000
     CHANNELS 3 Xrotation Yrotation Zrotation
     JOINT forearm.L
     {
      OFFSET 0.000000 0.000000 -1.905342
      CHANNELS 3 Xrotation Yrotation Zrotation
      JOINT hand.L
      {
       OFFSET 0.000000 0.000000 -2.171768
       CHANNELS 3 Xrotation Yrotation Zrotation
       JOINT finger3.1.L
       {
        OFFSET 0.000000 0.000000 -0.821608
        CHANNELS 3 Xrotation Yrotation Zrotation
        JOINT finger3.2.L
        {
         OFFSET 0.486683 -0.206354 -0.303690
         CHANNELS 3 Xrotation Yrotation Zrotation
         JOINT finger3.3.L
         {
          OFFSET 0.334838 0.007787 -0.198567
          CHANNELS 3 Xrotation Yrotation Zrotation
          End Site
          {
           OFFSET 0.389346 0.253075 -0.225821
          }
         }
        }
       }
       JOINT finger1.1.L
       {
        OFFSET 0.000000 0.000000 -0.821608
        CHANNELS 3 Xrotation Yrotation Zrotation
        JOINT finger1.2.L
        {
         OFFSET -0.490577 -0.196470 -0.303690
         CHANNELS 3 Xrotation Yrotation Zrotation
         JOINT finger1.3.L
         {
          OFFSET -0.342625 0.011980 -0.194673
          CHANNELS 3 Xrotation Yrotation Zrotation
          End Site
          {
           OFFSET -0.373773 0.232410 -0.229714
          }
         }
        }
       }
       JOINT finger2.1.L
       {
        OFFSET 0.000000 0.000000 -0.821608
        CHANNELS 3 Xrotation Yrotation Zrotation
        JOINT finger2.2.L
        {
         OFFSET 0.000000 -0.190780 -0.704717
         CHANNELS 3 Xrotation Yrotation Zrotation
         JOINT finger2.3.L
         {
          OFFSET 0.003893 0.101230 -0.323157
          CHANNELS 3 Xrotation Yrotation Zrotation
          End Site
          {
           OFFSET -0.003893 -0.019467 -0.365986
          }
         }
        }
       }
      }
     }
    }
   }
   JOINT shoulder.R
   {
    OFFSET 0.000000 0.000000 3.259670
    CHANNELS 3 Xrotation Yrotation Zrotation
    JOINT upperarm.R
    {
     OFFSET -3.520937 0.000000 0.000000
     CHANNELS 3 Xrotation Yrotation Zrotation
     JOINT forearm.R
     {
      OFFSET 0.000000 0.000000 -1.895009
      CHANNELS 3 Xrotation Yrotation Zrotation
      JOINT hand.R
      {
       OFFSET 0.000000 0.000000 -2.185655
       CHANNELS 3 Xrotation Yrotation Zrotation
       JOINT finger1.1.R
       {
        OFFSET 0.000000 0.000000 -0.860311
        CHANNELS 3 Xrotation Yrotation Zrotation
        JOINT finger1.2.R
        {
         OFFSET 0.481232 -0.206354 -0.261641
         CHANNELS 3 Xrotation Yrotation Zrotation
         JOINT finger1.3.R
         {
          OFFSET 0.336395 -0.003893 -0.186886
          CHANNELS 3 Xrotation Yrotation Zrotation
          End Site
          {
           OFFSET 0.378445 0.268649 -0.224263
          }
         }
        }
       }
       JOINT finger3.1.R
       {
        OFFSET 0.000000 0.000000 -0.860311
        CHANNELS 3 Xrotation Yrotation Zrotation
        JOINT finger3.2.R
        {
         OFFSET -0.509265 -0.206354 -0.256969
         CHANNELS 3 Xrotation Yrotation Zrotation
         JOINT finger3.3.R
         {
          OFFSET -0.322379 -0.003893 -0.196231
          CHANNELS 3 Xrotation Yrotation Zrotation
          End Site
          {
           OFFSET -0.383117 0.268649 -0.224263
          }
         }
        }
       }
       JOINT finger2.1.R
       {
        OFFSET 0.000000 0.000000 -0.860311
        CHANNELS 3 Xrotation Yrotation Zrotation
        JOINT finger2.2.R
        {
         OFFSET -0.009345 -0.186886 -0.672790
         CHANNELS 3 Xrotation Yrotation Zrotation
         JOINT finger2.3.R
         {
          OFFSET 0.000000 0.101230 -0.317707
          CHANNELS 3 Xrotation Yrotation Zrotation
          End Site
          {
           OFFSET 0.004672 -0.019467 -0.355084
          }
         }
        }
       }
      }
     }
    }
   }
   JOINT neck
   {
    OFFSET 0.000000 0.000000 3.259670
    CHANNELS 3 Xrotation Yrotation Zrotation
    JOINT head
    {
     OFFSET 0.000000 0.000000 1.743819
     CHANNELS 3 Xrotation Yrotation Zrotation
     JOINT eyebrow.L
     {
      OFFSET 0.180715 -1.671701 2.959368
      CHANNELS 3 Xrotation Yrotation Zrotation
      End Site
      {
       OFFSET 0.946941 0.000000 -0.043695
      }
     }
     JOINT eyebrow.R
     {
      OFFSET -0.180277 -1.671701 2.946811
      CHANNELS 3 Xrotation Yrotation Zrotation
      End Site
      {
       OFFSET -0.928215 0.000000 -0.026275
      }
     }
     JOINT lowerlip
     {
      OFFSET 0.000000 -0.002601 2.073333
      CHANNELS 3 Xrotation Yrotation Zrotation
      End Site
      {
       OFFSET 0.000000 -1.598006 -1.295259
      }
     }
     JOINT upperlip
     {
      OFFSET 0.000000 -0.002601 2.073333
      CHANNELS 3 Xrotation Yrotation Zrotation
      End Site
      {
       OFFSET 0.000000 -1.757182 -0.664795
      }
     }
    }
   }
  }
  JOINT upperleg.L
  {
   OFFSET 0.978163 0.000000 -0.686246
   CHANNELS 3 Xrotation Yrotation Zrotation
   JOINT lowerleg.L
   {
    OFFSET -0.009344 0.000000 -2.179841
    CHANNELS 3 Xrotation Yrotation Zrotation
    JOINT foot.L
    {
     OFFSET 0.000000 0.000000 -3.724912
     CHANNELS 3 Xrotation Yrotation Zrotation
     JOINT toe1.1.L
     {
      OFFSET 0.000000 -1.244663 0.000000
      CHANNELS 3 Xrotation Yrotation Zrotation
      JOINT toe1.2.L
      {
       OFFSET -0.352061 -0.378278 0.121723
       CHANNELS 3 Xrotation Yrotation Zrotation
       JOINT toe1.3.L
       {
        OFFSET -0.247192 -0.295881 -0.074906
        CHANNELS 3 Xrotation Yrotation Zrotation
        End Site
        {
         OFFSET -0.277154 -0.292136 -0.293385
        }
       }
      }
     }
     JOINT toe2.1.L
     {
      OFFSET 0.000000 -1.244663 0.000000
      CHANNELS 3 Xrotation Yrotation Zrotation
      JOINT toe2.2.L
      {
       OFFSET 0.007491 -0.591762 0.131086
       CHANNELS 3 Xrotation Yrotation Zrotation
       JOINT toe2.3.L
       {
        OFFSET 0.000000 -0.277154 -0.049937
        CHANNELS 3 Xrotation Yrotation Zrotation
        End Site
        {
         OFFSET -0.003745 -0.385769 -0.315232
        }
       }
      }
     }
     JOINT toe3.1.L
     {
      OFFSET 0.000000 -1.244663 0.000000
      CHANNELS 3 Xrotation Yrotation Zrotation
      JOINT toe3.2.L
      {
       OFFSET 0.359551 -0.397005 0.121723
       CHANNELS 3 Xrotation Yrotation Zrotation
       JOINT toe3.3.L
       {
        OFFSET 0.220974 -0.303371 -0.074906
        CHANNELS 3 Xrotation Yrotation Zrotation
        End Site
        {
         OFFSET 0.250937 -0.318353 -0.293385
        }
       }
      }
     }
    }
   }
  }
  JOINT upperleg.R
  {
   OFFSET -0.957306 0.000000 -0.665170
   CHANNELS 3 Xrotation Yrotation Zrotation
   JOINT lowerleg.R
   {
    OFFSET -0.012783 0.000000 -2.192843
    CHANNELS 3 Xrotation Yrotation Zrotation
    JOINT foot.R
    {
     OFFSET 0.000000 0.006728 -3.699487
     CHANNELS 3 Xrotation Yrotation Zrotation
     JOINT toe1.1.R
     {
      OFFSET 0.000000 -1.244663 -0.020184
      CHANNELS 3 Xrotation Yrotation Zrotation
      JOINT toe1.2.R
      {
       OFFSET 0.363297 -0.382023 0.121723
       CHANNELS 3 Xrotation Yrotation Zrotation
       JOINT toe1.3.R
       {
        OFFSET 0.243446 -0.284645 -0.074906
        CHANNELS 3 Xrotation Yrotation Zrotation
        End Site
        {
         OFFSET 0.284645 -0.303372 -0.293385
        }
       }
      }
     }
     JOINT toe2.1.R
     {
      OFFSET 0.000000 -1.244663 -0.020184
      CHANNELS 3 Xrotation Yrotation Zrotation
      JOINT toe2.2.R
      {
       OFFSET -0.003745 -0.591762 0.131086
       CHANNELS 3 Xrotation Yrotation Zrotation
       JOINT toe2.3.R
       {
        OFFSET 0.000000 -0.288390 -0.049937
        CHANNELS 3 Xrotation Yrotation Zrotation
        End Site
        {
         OFFSET -0.003745 -0.382023 -0.315232
        }
       }
      }
     }
     JOINT toe3.1.R
     {
      OFFSET 0.000000 -1.244663 -0.020184
      CHANNELS 3 Xrotation Yrotation Zrotation
      JOINT toe3.2.R
      {
       OFFSET -0.355806 -0.404495 0.121723
       CHANNELS 3 Xrotation Yrotation Zrotation
       JOINT toe3.3.R
       {
        OFFSET -0.220974 -0.303371 -0.074906
        CHANNELS 3 Xrotation Yrotation Zrotation
        End Site
        {
         OFFSET -0.265918 -0.325844 -0.293385
        }
       }
      }
     }
    }
   }
  }
 }
}
MOTION
Frames: 17
Frame Time: 0.041667
0.0178 1.7835 -1.7762 0 0 0 0 3.4166 0 0.0318 -3.0232 -4.6133 0 0 0 22.1563 0.9099 -0.1857 -61.1141 0 0 -21.9674 0 0 7.4247 20.5881 -5.3762 0 0 0 0 0 0 6.8306 -20.1121 4.9045 0 0 0 0 0 0 0 0 0 0 0 0 0 0 0 0 0 0 0 19.2718 0 -59.5118 0 0 -8.6761 -23.0933 -21.2582 8.108 20.9231 -5.3716 0 0 0 0 0 0 4.0281 -11.6232 2.3239 0 0 0 0 0 0 0 0 0 0 0 0 0 0 0 0 0 0 -0.1271 1.5842 14.1295 0 0 0 0.0081 4.3241 -0.1227 0 0 0 0 0 0 -11.506 -3.2314 -0.6811 18.6104 0.0061 0.0372 -6.7495 0.0008 -0.0137 0 0 0 0 0 0 0 0 0 0 0 0 0 0 0 0 0 0 0 0 0 0 0 0 0 0 0 0 1.3654 0 0 0 0 2.0169 -7.0848 0.1682 0 0 0 0 0 0 0 0 0 0 0 0 0 0 0 0 0 0 0 0 0 0 0 0 0 0 0
0.0145 1.7921 -1.7762 0 0 0 0 3.3746 0 0.3741 -2.9757 -4.5467 0 0 0 22.0225 0.7889 -0.1611 -61.1043 0 0 -21.8632 0.1231 0.1424 7.4008 20.5336 -5.3571 0 0 0 0 0 0 6.8334 -20.1189 4.9067 0 0 0 0 0 0 0 0 0 0 0 0 0 0 0 0 0 0 0.1413 19.1505 -0.0238 -59.5216 0 0 -8.7335 -22.941 -21.1381 8.1049 20.9165 -5.3693 0 0 0 0 0 0 4.049 -11.6787 2.3373 0 0 0 0 0 0 0 0 0 0 0 0 0 0 0 0 0 0 -0.6242 1.5047 13.9616 0.0028 -1.1016 0.0508 0.0135 5.9354 -0.1688 -0.51 0 0 0.4316 0 0 -11.5037 -3.2201 -0.6764 18.4965 0.006 0.037 -6.6531 0.0441 -0.0111 0 0 0 0 0 0 0 0 0 0 0 0 0 0 0 0 0 0 0 0 0 0 0 0 0 0 0 -0.1579 1.3768 0.0029 0.1139 0 -0.0002 2.0034 -7.0408 0.1669 0 0 0 0 0 0 0 0 0 0 0 0 0 0 0 0 0 0 0 0 0 0 0 0 0 0 0
0.0051 1.8156 -1.7762 0 0 0 0 3.2534 0 0.8198 -2.8158 -4.3699 0 0 0 21.636 0.439 -0.0913 -61.0758 0 0 -21.563 0.4804 0.5529 7.3319 20.3762 -5.302 0 0 0 0 0 0 6.8395 -20.1338 4.9116 0 0 0 0 0 0 0 0 0 0 0 0 0 0 0 0 0 0 0.5487 18.7992 -0.0907 -59.5401 0 0 -8.8729 -22.5063 -20.7856 8.0959 20.8974 -5.3625 0 0 0 0 0 0 4.1038 -11.8239 2.3724 0 0 0 0 0 0 0 0 0 0 0 0 0 0 0 0 0 0 -1.2565 1.3783 13.4651 0.0074 -2.395 0.1106 0.019 7.2732 -0.2073 -1.2029 0 0 1.0265 0 0 -11.4979 -3.1874 -0.6629 18.1675 0.0058 0.0364 -6.3805 0.1694 -0.0039 0 0 0 0 0 0 0 0 0 0 0 0 0 0 0 0 0 0 0 0 0 0 0 0 0 0 0 -0.5991 1.4063 0.0113 0.4429 0 -0.0009 1.9584 -6.9143 0.1626 0 0 0 0 0 0 0 0 0 0 0 0 0 0 0 0 0 0 0 0 0 0 0 0 0 0 0
-0.0102 1.8502 -1.7762 0 0 0 0 3.0599 0 1.1853 -2.5456 -4.0985 0 0 0 21.0192 -0.1212 0.0153 -61.0304 0 0 -21.0888 1.0562 1.2055 7.2223 20.1247 -5.2146 0 0 0 0 0 0 6.8512 -20.1622 4.9208 0 0 0 0 0 0 0 0 0 0 0 0 0 0 0 0 0 0 1.1974 18.2369 -0.1918 -59.5796 0 0 -9.1292 -21.8076 -20.2266 8.0816 20.8669 -5.3517 0 0 0 0 0 0 4.1971 -12.0708 2.4326 0 0 0 0 0 0 0 0 0 0 0 0 0 0 0 0 0 0 -1.7511 1.2449 12.6651 0.0119 -3.4023 0.1572 0.0239 8.3155 -0.2374 -1.8021 0 0 1.5514 0 0 -11.4751 -3.1352 -0.6414 17.642 0.0055 0.0354 -5.9566 0.3694 0.0064 0 0 0 0 0 0 0 0 0 0 0 0 0 0 0 0 0 0 0 0 0 0 0 0 0 0 0 -1.2745 1.4564 0.0252 0.9684 0 -0.002 1.8754 -6.7128 0.1552 0 0 0 0 0 0 0 0 0 0 0 0 0 0 0 0 0 0 0 0 0 0 0 0 0 0 0
-0.0309 1.8921 -1.7762 0 0 0 0 2.8011 0 1.4779 -2.1755 -3.7425 0 0 0 20.1942 -0.8736 0.1487 -60.9697 0 0 -20.4635 1.8367 2.0734 7.0767 19.7881 -5.0987 0 0 0 0 0 0 6.8677 -20.2026 4.934 0 0 0 0 0 0 0 0 0 0 0 0 0 0 0 0 0 0 2.0617 17.482 -0.3163 -59.6378 0 0 -9.4975 -20.8717 -19.4786 8.0625 20.8262 -5.3373 0 0 0 0 0 0 4.3257 -12.4091 2.5158 0 0 0 0 0 0 0 0 0 0 0 0 0 0 0 0 0 0 -2.1251 1.1063 11.591 0.0158 -4.1593 0.1924 0.028 9.1 -0.2603 -2.311 0 0 2.0062 0 0 -11.4173 -3.0657 -0.6126 16.9388 0.0051 0.034 -5.4063 0.6371 0.018 0 0 0 0 0 0 0 0 0 0 0 0 0 0 0 0 0 0 0 0 0 0 0 0 0 0 0 -2.1354 1.5247 0.0451 1.6716 0 -0.0034 1.7477 -6.4437 0.1447 0 0 0 0 0 0 0 0 0 0 0 0 0 0 0 0 0 0 0 0 0 0 0 0 0 0 0
-0.0566 1.9378 -1.7762 0 0 0 0 2.484 0 1.7047 -1.7162 -3.3115 0 0 0 19.1833 -1.8 0.2977 -60.8953 0 0 -19.7109 2.8089 3.1291 6.8997 19.3753 -4.9583 0 0 0 0 0 0 6.8887 -20.2535 4.9506 0 0 0 0 0 0 0 0 0 0 0 0 0 0 0 0 0 0 3.1159 16.5528 -0.4523 -59.7123 0 0 -9.9741 -19.7261 -18.558 8.0392 20.7762 -5.3197 0 0 0 0 0 0 4.486 -12.8283 2.6202 0 0 0 0 0 0 0 0 0 0 0 0 0 0 0 0 0 0 -2.3955 0.9625 10.2715 0.0189 -4.702 0.2176 0.0312 9.6636 -0.2767 -2.7327 0 0 2.391 0 0 -11.3065 -2.9806 -0.5773 16.0765 0.0046 0.0323 -4.7546 0.9653 0.0291 0 0 0 0 0 0 0 0 0 0 0 0 0 0 0 0 0 0 0 0 0 0 0 0 0 0 0 -3.1326 1.609 0.0714 2.5339 -0.0001 -0.0052 1.5686 -6.1141 0.1313 0 0 0 0 0 0 0 0 0 0 0 0 0 0 0 0 0 0 0 0 0 0 0 0 0 0 0
-0.087 1.9834 -1.7762 0 0 0 0 2.1156 0 1.8727 -1.1784 -2.815 0 0 0 18.0083 -2.8818 0.4506 -60.809 0 0 -18.8556 3.9592 4.3447 6.6959 18.8952 -4.7973 0 0 0 0 0 0 6.9134 -20.3135 4.9703 0 0 0 0 0 0 0 0 0 0 0 0 0 0 0 0 0 0 4.3344 15.4681 -0.5875 -59.8009 0 0 -10.5555 -18.3991 -17.4811 8.012 20.7182 -5.2993 0 0 0 0 0 0 4.6748 -13.3181 2.744 0 0 0 0 0 0 0 0 0 0 0 0 0 0 0 0 0 0 -2.5788 0.8126 8.736 0.0212 -5.0661 0.2346 0.0334 10.0431 -0.2878 -3.0704 0 0 2.7059 0 0 -11.1245 -2.8819 -0.5362 15.074 0.004 0.0303 -4.0264 1.3469 0.0379 0 0 0 0 0 0 0 0 0 0 0 0 0 0 0 0 0 0 0 0 0 0 0 0 0 0 0 -4.2168 1.7069 0.1045 3.5364 -0.0002 -0.0072 1.3314 -5.7312 0.1151 0 0 0 0 0 0 0 0 0 0 0 0 0 0 0 0 0 0 0 0 0 0 0 0 0 0 0
-0.1215 2.0254 -1.7762 0 0 0 0 1.703 0 1.9888 -0.5733 -2.2622 0 0 0 16.6909 -4.0999 0.596 -60.7122 0 0 -17.9222 5.2733 5.6927 6.47 18.3566 -4.6196 0 0 0 0 0 0 6.9413 -20.3813 4.9925 0 0 0 0 0 0 0 0 0 0 0 0 0 0 0 0 0 0 5.6921 14.2471 -0.71 -59.9013 0 0 -11.238 -16.9199 -16.2639 7.9817 20.6533 -5.2765 0 0 0 0 0 0 4.8888 -13.8681 2.8855 0 0 0 0 0 0 0 0 0 0 0 0 0 0 0 0 0 0 -2.6916 0.6554 7.0141 0.0226 -5.2872 0.2449 0.0347 10.2749 -0.2946 -3.3275 0 0 2.9507 0 0 -10.8534 -2.7715 -0.4904 13.95 0.0034 0.0281 -3.2468 1.7747 0.0427 0 0 0 0 0 0 0 0 0 0 0 0 0 0 0 0 0 0 0 0 0 0 0 0 0 0 0 -5.3388 1.8159 0.1445 4.6604 -0.0004 -0.0095 1.0294 -5.3022 0.097 0 0 0 0 0 0 0 0 0 0 0 0 0 0 0 0 0 0 0 0 0 0 0 0 0 0 0
-0.16 2.06 -1.7762 0 0 0 0 1.2531 0 2.0604 0.0879 -1.662 0 0 0 15.2524 -5.4341 0.723 -60.6067 0 0 -16.9349 6.7347 7.1456 6.2264 17.7686 -4.4289 0 0 0 0 0 0 6.9719 -20.4553 5.0168 0 0 0 0 0 0 0 0 0 0 0 0 0 0 0 0 0 0 7.1645 12.9105 -0.8093 -60.0111 0 0 -12.0168 -15.3185 -14.9225 7.9486 20.5824 -5.2516 0 0 0 0 0 0 5.1245 -14.4678 3.0427 0 0 0 0 0 0 0 0 0 0 0 0 0 0 0 0 0 0 -2.7506 0.4895 5.1359 0.0233 -5.4011 0.2502 0.0355 10.3955 -0.2982 -3.5072 0 0 3.1256 0 0 -10.4751 -2.651 -0.4409 12.7237 0.0029 0.0257 -2.4407 2.2412 0.0424 0 0 0 0 0 0 0 0 0 0 0 0 0 0 0 0 0 0 0 0 0 0 0 0 0 0 0 -6.4488 1.9338 0.1913 5.8867 -0.0006 -0.012 0.6561 -4.8343 0.0774 0 0 0 0 0 0 0 0 0 0 0 0 0 0 0 0 0 0 0 0 0 0 0 0 0 0 0
-0.2018 2.0834 -1.7762 0 0 0 0 0.7729 0 2.0949 0.7941 -1.0236 0 0 0 13.714 -6.8633 0.8217 -60.4941 0 0 -15.9168 8.3248 8.677 5.9696 17.1401 -4.229 0 0 0 0 0 0 7.0045 -20.5342 5.0428 0 0 0 0 0 0 0 0 0 0 0 0 0 0 0 0 0 0 8.7275 11.4794 -0.876 -60.128 0 0 -12.8855 -13.6256 -13.4734 7.9134 20.5068 -5.2252 0 0 0 0 0 0 5.3786 -15.1068 3.2137 0 0 0 0 0 0 0 0 0 0 0 0 0 0 0 0 0 0 -2.7723 0.3145 3.132 0.0236 -5.4433 0.2522 0.0358 10.4411 -0.2995 -3.6126 0 0 3.2305 0 0 -9.9713 -2.5224 -0.3887 11.4141 0.0023 0.0231 -1.6333 2.7391 0.0364 0 0 0 0 0 0 0 0 0 0 0 0 0 0 0 0 0 0 0 0 0 0 0 0 0 0 0 -7.4973 2.0583 0.2446 7.1963 -0.0009 -0.0146 0.2046 -4.3347 0.0573 0 0 0 0 0 0 0 0 0 0 0 0 0 0 0 0 0 0 0 0 0 0 0 0 0 0 0
-0.2467 2.092 -1.7762 0 0 0 0 0.2696 0 2.1003 1.5339 -0.3562 0 0 0 12.0967 -8.3655 0.8839 -60.3761 0 0 -14.8896 10.0226 10.2612 5.7037 16.4804 -4.0233 0 0 0 0 0 0 7.0386 -20.6165 5.07 0 0 0 0 0 0 0 0 0 0 0 0 0 0 0 0 0 0 10.3581 9.9762 -0.903 -60.2497 0 0 -13.8358 -11.872 -11.9341 7.8766 20.4275 -5.1975 0 0 0 0 0 0 5.6474 -15.7748 3.3964 0 0 0 0 0 0 0 0 0 0 0 0 0 0 0 0 0 0 -2.7731 0.1303 1.0337 0.0236 -5.4494 0.2525 0.0358 10.4482 -0.2997 -3.6471 0 0 3.2655 0 0 -9.3239 -2.3872 -0.3352 10.0408 0.0018 0.0203 -0.8496 3.261 0.0248 0 0 0 0 0 0 0 0 0 0 0 0 0 0 0 0 0 0 0 0 0 0 0 0 0 0 0 -8.4348 2.1874 0.3036 8.5696 -0.0013 -0.0174 -0.3316 -3.8107 0.0378 0 0 0 0 0 0 0 0 0 0 0 0 0 0 0 0 0 0 0 0 0 0 0 0 0 0 0
-0.2941 2.0882 -1.7762 0 0 0 0 -0.2489 0 2.0707 2.2948 0.3298 0 0 0 10.4248 -9.9146 0.9032 -60.2546 0 0 -13.8754 11.8007 11.8706 5.4333 15.7998 -3.8155 0 0 0 0 0 0 7.0736 -20.7007 5.0979 0 0 0 0 0 0 0 0 0 0 0 0 0 0 0 0 0 0 12.0303 8.4272 -0.8855 -60.3739 0 0 -14.8555 -10.0921 -10.3262 7.8387 20.3458 -5.1691 0 0 0 0 0 0 5.9268 -16.46 3.5881 0 0 0 0 0 0 0 0 0 0 0 0 0 0 0 0 0 0 -2.7407 -0.0614 -1.1231 0.0225 -5.2815 0.2447 0.035 10.3156 -0.2958 -3.5903 0 0 3.2119 0 0 -8.4746 -2.2473 -0.281 8.626 0.0013 0.0175 -0.1115 3.7983 0.008 0 0 0 0 0 0 0 0 0 0 0 0 0 0 0 0 0 0 0 0 0 0 0 0 0 0 0 -9.2226 2.3188 0.3672 9.9844 -0.0017 -0.0202 -0.953 -3.2707 0.0202 0 0 0 0 0 0 0 0 0 0 0 0 0 0 0 0 0 0 0 0 0 0 0 0 0 0 0
-0.3426 2.0769 -1.7762 0 0 0 0 -0.7701 0 1.9952 3.058 1.0191 0 0 0 8.7368 -11.4709 0.8763 -60.1324 0 0 -12.9012 13.6144 13.466 5.165 15.1148 -3.6106 0 0 0 0 0 0 7.1085 -20.7848 5.1258 0 0 0 0 0 0 0 0 0 0 0 0 0 0 0 0 0 0 13.7049 6.8719 -0.8221 -60.4976 0 0 -15.9223 -8.3335 -8.6868 7.8007 20.2637 -5.1406 0 0 0 0 0 0 6.2103 -17.1461 3.7845 0 0 0 0 0 0 0 0 0 0 0 0 0 0 0 0 0 0 -2.6536 -0.2584 -3.2859 0.0196 -4.8088 0.2226 0.0327 9.9304 -0.2845 -3.4289 0 0 3.0603 0 0 -7.423 -2.1056 -0.2276 7.2041 0.0009 0.0146 0.5722 4.3382 -0.0132 0 0 0 0 0 0 0 0 0 0 0 0 0 0 0 0 0 0 0 0 0 0 0 0 0 0 0 -9.865 2.4497 0.4333 11.4063 -0.0023 -0.0231 -1.6359 -2.7277 0.0065 0 0 0 0 0 0 0 0 0 0 0 0 0 0 0 0 0 0 0 0 0 0 0 0 0 0 0
-0.3909 2.0587 -1.7762 0 0 0 0 -1.2804 0 1.875 3.803 1.6952 0 0 0 7.0754 -12.9918 0.8043 -60.0128 0 0 -11.992 15.4122 15.0074 4.9055 14.4433 -3.4139 0 0 0 0 0 0 7.1427 -20.8667 5.1531 0 0 0 0 0 0 0 0 0 0 0 0 0 0 0 0 0 0 15.3399 5.353 -0.7162 -60.6178 0 0 -17.0072 -6.6444 -7.0588 7.7635 20.1832 -5.1128 0 0 0 0 0 0 6.4908 -17.8157 3.9806 0 0 0 0 0 0 0 0 0 0 0 0 0 0 0 0 0 0 -2.514 -0.4582 -5.3976 0.0154 -4.0782 0.1886 0.0292 9.3114 -0.2664 -3.1765 0 0 2.8248 0 0 -6.238 -1.9655 -0.1772 5.8123 0.0006 0.0118 1.1962 4.8665 -0.0379 0 0 0 0 0 0 0 0 0 0 0 0 0 0 0 0 0 0 0 0 0 0 0 0 0 0 0 -10.3766 2.5769 0.4995 12.7981 -0.0028 -0.0259 -2.35 -2.1958 -0.0021 0 0 0 0 0 0 0 0 0 0 0 0 0 0 0 0 0 0 0 0 0 0 0 0 0 0 0
-0.4375 2.0342 -1.7762 0 0 0 0 -1.7664 0 1.712 4.5095 2.3414 0 0 0 5.4841 -14.4352 0.6932 -59.8988 0 0 -11.1676 17.1412 16.4569 4.6614 13.803 -3.23 0 0 0 0 0 0 7.1752 -20.9445 5.179 0 0 0 0 0 0 0 0 0 0 0 0 0 0 0 0 0 0 16.8934 3.9124 -0.5755 -60.7317 0 0 -18.0772 -5.0692 -5.4873 7.7282 20.1066 -5.0863 0 0 0 0 0 0 6.7608 -18.4514 4.1709 0 0 0 0 0 0 0 0 0 0 0 0 0 0 0 0 0 0 -2.3236 -0.658 -7.4022 0.0106 -3.1362 0.1449 0.0247 8.4774 -0.2421 -2.8467 0 0 2.5192 0 0 -4.9886 -1.831 -0.1315 4.4877 0.0004 0.0091 1.755 5.3693 -0.0648 0 0 0 0 0 0 0 0 0 0 0 0 0 0 0 0 0 0 0 0 0 0 0 0 0 0 0 -10.7723 2.6974 0.5637 14.1227 -0.0035 -0.0285 -3.0657 -1.6891 -0.0049 0 0 0 0 0 0 0 0 0 0 0 0 0 0 0 0 0 0 0 0 0 0 0 0 0 0 0
-0.4809 2.0039 -1.7762 0 0 0 0 -2.2145 0 1.5091 5.1575 2.9406 0 0 0 4.0079 -15.7601 0.5536 -59.7937 0 0 -10.4437 18.7475 17.7785 4.4388 13.2119 -3.0633 0 0 0 0 0 0 7.2051 -21.0159 5.2029 0 0 0 0 0 0 0 0 0 0 0 0 0 0 0 0 0 0 18.324 2.5908 -0.4117 -60.8361 0 0 -19.0951 -3.6479 -4.0199 7.6956 20.0359 -5.062 0 0 0 0 0 0 7.0122 -19.036 4.3496 0 0 0 0 0 0 0 0 0 0 0 0 0 0 0 0 0 0 -2.0834 -0.8541 -9.2439 0.006 -2.0297 0.0937 0.0198 7.447 -0.2123 -2.453 0 0 2.1577 0 0 -3.7437 -1.7059 -0.0919 3.2672 0.0002 0.0066 2.2431 5.8327 -0.0922 0 0 0 0 0 0 0 0 0 0 0 0 0 0 0 0 0 0 0 0 0 0 0 0 0 0 0 -11.0668 2.8082 0.6235 15.3432 -0.0041 -0.0309 -3.7529 -1.222 -0.0025 0 0 0 0 0 0 0 0 0 0 0 0 0 0 0 0 0 0 0 0 0 0 0 0 0 0 0
-0.5196 1.9683 -1.7762 0 0 0 0 -2.6114 0 1.2698 5.7274 3.4755 0 0 0 2.6929 -16.927 0.3999 -59.7006 0 0 -9.832 20.1774 18.9374 4.2435 12.6881 -2.9181 0 0 0 0 0 0 7.2315 -21.079 5.2241 0 0 0 0 0 0 0 0 0 0 0 0 0 0 0 0 0 0 19.5896 1.4272 -0.2397 -60.9283 0 0 -20.0209 -2.4161 -2.7062 7.6668 19.9733 -5.0405 0 0 0 0 0 0 7.2369 -19.5524 4.5104 0 0 0 0 0 0 0 0 0 0 0 0 0 0 0 0 0 0 -1.7938 -1.042 -10.8683 0.002 -0.8058 0.0372 0.0147 6.239 -0.1775 -2.0089 0 0 1.7542 0 0 -2.5722 -1.5942 -0.0591 2.1873 0 0.0045 2.655 6.2428 -0.1182 0 0 0 0 0 0 0 0 0 0 0 0 0 0 0 0 0 0 0 0 0 0 0 0 0 0 0 -11.275 2.906 0.6769 16.4231 -0.0047 -0.033 -4.382 -0.8085 0.0039 0 0 0 0 0 0 0 0 0 0 0 0 0 0 0 0 0 0 0 0 0 0 0 0 0 0 0
